# xmcd
#
# Track frame offsets: 
#        150
#        9515
#        19315
#        29560
#        42482
#        52692
#        65797
#        80460
#        97215
#        110687
#        124402
#        136050
#        151065
#        162732
#        176332
#        192155
#        208230
#        223807
#        237487
#        249072
#        261730
#        271000
#        282452
#
# Disc length: 3970 seconds
#
# Revision: 2
# Processed by: cddbd v1.5.1PL0 Copyright (c) Steve Scherf et al.
# Submitted via: ExactAudioCopy v0.95b2
#
DISCID=5c0f8017
DTITLE=Various Artist - Chess Soul - A Decade Of Chicago's Finest Disc 1
DYEAR=1900
DGENRE=Soul
TTITLE0=Jan Bradley/Mama Didn't Lie
TTITLE1=Billy Stewart/Strange Feeling
TTITLE2=Cookie and The Cupcakes/I've Been So Lonely
TTITLE3=Sugar Pie DeSanto/Soulful Dress
TTITLE4=Johnny Nash/Love Ain't Nothin' (But a Monkey On Your Back)
TTITLE5=Kolettes/Who's That Guy?
TTITLE6=Tony Clarke/Ain't Love Good, Ain't Love Proud
TTITLE7=Mitty Collier/I Had a Talk With My Man
TTITLE8=Gems/I Can't Help Myself
TTITLE9=Fontella Bass and Bobby McClure/Don't Mess Up a Good Thing
TTITLE10=Radiants/Voice Your Choice
TTITLE11=Jackie Ross/Selfish One
TTITLE12=Tony Clarke/The Entertainer
TTITLE13=Billy Stewart/I Do Love You
TTITLE14=James Phelps/Love Is a Five Letter Word
TTITLE15=Fontella Bass/The Soul of a Man
TTITLE16=Knight Brothers/Temptation'Bout to Get Me
TTITLE17=Etta James and Sugar Pie DeSanto/Do I Make Myself Clear?
TTITLE18=Jackie Ross/Take Me for a Little While
TTITLE19=Valentinos/What About Me?
TTITLE20=Mitty Collier/I'm Satisfied
TTITLE21=Bobby Moore and The Rhythm Aces/Searching For My Love
TTITLE22=Etta James/Only Time Will Tell
EXTD=
EXTT0=
EXTT1=
EXTT2=
EXTT3=
EXTT4=
EXTT5=
EXTT6=
EXTT7=
EXTT8=
EXTT9=
EXTT10=
EXTT11=
EXTT12=
EXTT13=
EXTT14=
EXTT15=
EXTT16=
EXTT17=
EXTT18=
EXTT19=
EXTT20=
EXTT21=
EXTT22=
PLAYORDER=
